<?xml version="1.0" encoding="utf-8"?>
<!-- Generator: Adobe Illustrator 23.0.3, SVG Export Plug-In . SVG Version: 6.00 Build 0)  -->
<svg version="1.1" id="Capa_1" xmlns="http://www.w3.org/2000/svg" xmlns:xlink="http://www.w3.org/1999/xlink" x="0px" y="0px"
	 viewBox="0 0 39 39" style="enable-background:new 0 0 39 39;" xml:space="preserve">
<style type="text/css">
	.st0{fill:#FFFFFF;}
	.st1{fill:#3F5EA6;}
	.st2{fill-rule:evenodd;clip-rule:evenodd;fill:#3F5EA6;}
</style>
<g>
	<path class="st0" d="M22.36,3.25c0.4,0,0.8,0,1.21,0c0.79,0.22,1.36,0.75,1.93,1.31c2.97,2.99,5.96,5.97,8.95,8.95
		c0.57,0.56,1.1,1.13,1.32,1.92c0,0.42,0,0.85,0,1.27c-0.23,0.41-0.38,0.89-0.7,1.21c-5.27,5.3-10.56,10.59-15.86,15.87
		c-0.19,0.19-0.43,0.39-0.69,0.47c-1.23,0.43-2.35,0.29-3.3-0.68c-1.37-1.4-2.76-2.77-4.15-4.15c-0.08-0.08-0.17-0.15-0.28-0.27
		c-0.09,0.11-0.16,0.2-0.24,0.28c-1.99,1.99-3.98,3.98-5.97,5.97c-0.12,0.12-0.24,0.22-0.37,0.33c-0.32,0-0.63,0-0.95,0
		c0-0.32,0-0.63,0-0.95c2.18-2.2,4.37-4.4,6.55-6.59c-0.37-0.37-0.72-0.72-1.08-1.07c-0.88,0.88-1.77,1.78-2.66,2.66
		C5.94,29.9,5.79,30,5.64,30.03c-0.28,0.04-0.54-0.04-0.68-0.33c-0.13-0.26-0.07-0.62,0.14-0.84c0.78-0.79,1.57-1.57,2.36-2.35
		c0.11-0.11,0.26-0.18,0.4-0.28c-0.92-0.92-1.75-1.76-2.58-2.58c-1.03-1-0.99-2.94,0-3.93c5.06-5.04,10.1-10.09,15.15-15.14
		C20.98,4.01,21.53,3.44,22.36,3.25z M18.18,32.82c5.3-5.3,10.61-10.61,15.92-15.92c-0.72,0-1.45-0.01-2.19,0.01
		c-0.15,0-0.33,0.08-0.43,0.18c-1.46,1.44-2.91,2.9-4.36,4.35c-0.29,0.29-0.71,0.3-0.98,0.05c-0.22-0.22-0.29-0.69,0.01-0.99
		c1.12-1.09,2.22-2.21,3.33-3.32c0.08-0.07,0.15-0.15,0.24-0.25c-2.41,0-4.75,0-7.09,0c-0.03,0.66-0.06,1.3-0.1,1.94
		c-0.04,0.62-0.3,1.14-0.71,1.58c-0.59,0.64-1.35,0.87-2.19,0.9c-0.48,0.02-0.97,0-1.46,0C18.18,25.2,18.18,29.02,18.18,32.82z
		 M21.28,5.72c-4.77,4.76-9.52,9.52-14.29,14.29c0.56,0,1.14-0.01,1.71,0.01c0.25,0.01,0.43-0.07,0.61-0.25
		c2.1-2.12,4.21-4.22,6.32-6.33c0.37-0.37,0.76-0.39,1.07-0.06c0.29,0.3,0.26,0.64-0.11,1c-1.79,1.79-3.58,3.58-5.36,5.37
		c-0.08,0.08-0.15,0.15-0.26,0.27c0.55,0,1.03,0.02,1.5-0.01c0.16-0.01,0.35-0.08,0.46-0.19c0.85-0.83,1.7-1.68,2.54-2.53
		c0.27-0.27,0.57-0.34,0.85-0.19c0.26,0.14,0.39,0.42,0.31,0.78c-0.03,0.13-0.12,0.26-0.22,0.36c-0.56,0.58-1.14,1.15-1.77,1.77
		c0.18,0,0.28,0,0.38,0c1.51,0,3.03,0.01,4.54,0c1.06-0.01,1.72-0.66,1.72-1.72c0.01-4.09,0-8.19,0-12.28
		C21.28,5.91,21.28,5.8,21.28,5.72z M34.38,15.56c-0.17-0.24-0.28-0.45-0.44-0.62c-3.29-3.3-6.59-6.6-9.89-9.89
		c-0.39-0.39-0.86-0.57-1.42-0.43c0,3.65,0,7.29,0,10.94C26.53,15.56,30.41,15.56,34.38,15.56z M16.81,33.11c0-3.97,0-7.86,0-11.75
		c-3.66,0-7.31,0-10.94,0c-0.12,0.59,0.07,1.05,0.46,1.45c3.28,3.28,6.56,6.57,9.85,9.85C16.36,32.83,16.58,32.94,16.81,33.11z"/>
	<path class="st0" d="M7.69,35.75c-0.51-0.4-0.54-0.76-0.08-1.22c0.9-0.9,1.81-1.81,2.71-2.71c0.31-0.31,0.73-0.35,1-0.09
		c0.28,0.27,0.26,0.73-0.05,1.04c-0.92,0.92-1.84,1.84-2.76,2.76c-0.08,0.08-0.17,0.15-0.25,0.22C8.07,35.75,7.88,35.75,7.69,35.75z
		"/>
	<path class="st0" d="M3.25,30.74c0.19-0.27,0.44-0.48,0.78-0.36c0.19,0.07,0.37,0.25,0.48,0.43c0.14,0.24-0.01,0.64-0.24,0.79
		C4,31.76,3.59,31.7,3.38,31.47c-0.05-0.05-0.09-0.11-0.13-0.16C3.25,31.12,3.25,30.93,3.25,30.74z"/>
	<path class="st0" d="M17.76,11.63c0.42,0,0.65,0.23,0.66,0.62c0,0.38-0.31,0.72-0.64,0.71c-0.34-0.01-0.68-0.34-0.69-0.68
		C17.08,11.88,17.34,11.63,17.76,11.63z"/>
</g>
</svg>
