<?xml version="1.0" encoding="utf-8"?>
<!-- Generator: Adobe Illustrator 23.0.3, SVG Export Plug-In . SVG Version: 6.00 Build 0)  -->
<svg version="1.1" id="Capa_1" xmlns="http://www.w3.org/2000/svg" xmlns:xlink="http://www.w3.org/1999/xlink" x="0px" y="0px"
	 viewBox="0 0 39 39" style="enable-background:new 0 0 39 39;" xml:space="preserve">
<style type="text/css">
	.st0{fill:#FFFFFF;}
	.st1{fill:#3F5EA6;}
	.st2{fill-rule:evenodd;clip-rule:evenodd;fill:#3F5EA6;}
</style>
<g>
	<g>
		<path class="st1" d="M17.68,2.76c1.21,0,2.42,0,3.64,0c0.4,0.07,0.81,0.11,1.21,0.2C24.44,3.38,26.29,4,27.99,5
			c1.3,0.77,2.5,1.66,3.51,2.75c0.88,0.94,1.65,2,2.36,3.07c1.08,1.63,1.71,3.48,2.1,5.39c0.1,0.49,0.18,0.97,0.27,1.46
			c0,1.21,0,2.43,0,3.64c-0.07,0.4-0.11,0.81-0.2,1.2C35.62,24.44,35,26.29,34,27.99c-0.77,1.29-1.66,2.5-2.75,3.51
			c-0.94,0.88-2,1.65-3.07,2.36c-1.64,1.08-3.48,1.71-5.39,2.1c-0.48,0.1-0.97,0.18-1.46,0.27c-1.21,0-2.43,0-3.64,0
			c-0.4-0.07-0.81-0.11-1.21-0.2C14.56,35.62,12.71,35,11.01,34c-1.29-0.76-2.5-1.66-3.51-2.75c-0.88-0.94-1.65-2-2.36-3.08
			c-1.09-1.64-1.71-3.48-2.1-5.39c-0.1-0.48-0.18-0.97-0.27-1.46c0-1.21,0-2.43,0-3.64c0.06-0.4,0.11-0.81,0.2-1.21
			C3.38,14.56,4,12.71,5,11.01c0.77-1.29,1.66-2.5,2.75-3.51c0.94-0.88,2-1.65,3.08-2.36c1.63-1.08,3.47-1.71,5.39-2.1
			C16.71,2.93,17.19,2.85,17.68,2.76z M19.5,4.31C11.25,4.19,4.27,10.99,4.26,19.44c-0.01,8.46,6.6,14.75,14.12,15.24
			c4.86,0.32,9-1.33,12.32-4.89c2.7-2.9,4.06-6.4,4.04-10.35C34.69,10.99,27.76,4.19,19.5,4.31z"/>
		<path class="st2" d="M19.53,27.5c-2.2,0.12-4.08-0.64-5.8-1.84c-0.46-0.32-0.86-0.75-1.27-1.15c-0.34-0.34-0.36-0.91-0.07-1.2
			c0.28-0.28,0.87-0.27,1.2,0.07c0.63,0.65,1.3,1.22,2.11,1.66c0.92,0.49,1.88,0.82,2.9,0.92c1.53,0.15,3.02-0.06,4.41-0.74
			c0.88-0.43,1.64-1.02,2.33-1.73c0.2-0.2,0.57-0.38,0.83-0.34c0.65,0.09,0.87,0.82,0.41,1.33c-0.96,1.08-2.14,1.85-3.48,2.4
			C21.94,27.33,20.74,27.59,19.53,27.5z"/>
		<path class="st2" d="M13.7,17.23c0.4-0.01,0.62-0.24,0.62-0.65c-0.01-0.41-0.23-0.63-0.64-0.63c-0.43,0-0.65,0.24-0.64,0.67
			C13.05,17.02,13.29,17.24,13.7,17.23z"/>
		<path class="st2" d="M25.33,17.23c0.41,0,0.63-0.23,0.63-0.64c0-0.41-0.22-0.64-0.62-0.64c-0.43-0.01-0.66,0.23-0.66,0.65
			C24.69,17.01,24.92,17.23,25.33,17.23z"/>
	</g>
	<path class="st2" d="M15.25,16.57c0,0.88-0.71,1.59-1.59,1.59c-0.88,0-1.59-0.71-1.59-1.59c0-0.88,0.71-1.59,1.59-1.59
		C14.54,14.99,15.25,15.7,15.25,16.57z"/>
	<path class="st2" d="M26.91,16.57c0,0.88-0.71,1.59-1.59,1.59c-0.88,0-1.59-0.71-1.59-1.59c0-0.88,0.71-1.59,1.59-1.59
		C26.2,14.99,26.91,15.7,26.91,16.57z"/>
</g>
</svg>
