<?xml version="1.0" encoding="utf-8"?>
<!-- Generator: Adobe Illustrator 23.0.3, SVG Export Plug-In . SVG Version: 6.00 Build 0)  -->
<svg version="1.1" id="Capa_1" xmlns="http://www.w3.org/2000/svg" xmlns:xlink="http://www.w3.org/1999/xlink" x="0px" y="0px"
	 viewBox="0 0 39 39" style="enable-background:new 0 0 39 39;" xml:space="preserve">
<style type="text/css">
	.st0{fill:#FFFFFF;}
	.st1{fill:#3F5EA6;}
	.st2{fill-rule:evenodd;clip-rule:evenodd;fill:#3F5EA6;}
</style>
<path class="st2" d="M37.29,8.76c-0.87-0.49-1.73-0.99-2.6-1.46c-3.07-1.66-6.14-3.31-9.2-4.96c-0.49-0.27-0.97-0.56-1.46-0.84
	c-0.14,0-0.28,0-0.42,0c-1.11,1.09-2.21,2.18-3.31,3.27c-0.27,0.27-0.53,0.56-0.71,0.74c-1.41-1.35-2.8-2.68-4.19-4.01
	c-0.14,0-0.28,0-0.42,0c-0.94,0.53-1.88,1.05-2.82,1.58c-0.08,0.05-0.17,0.1-0.26,0.14l0,0l-0.72,0.4
	c-0.11,0.06-0.22,0.11-0.34,0.16c-0.1,0.04-0.18,0.09-0.24,0.15L7.54,5.61C5.6,6.66,3.66,7.71,1.71,8.76c0,0.24,0,0.49,0,0.74
	c1.29,1.35,2.58,2.71,3.76,3.95C4.29,14.69,3,16.04,1.71,17.4c0,0.25,0,0.49,0,0.74c0.93,0.52,1.86,1.04,2.79,1.56
	c0.39,0.22,0.81,0.4,1.17,0.65c0.14,0.1,0.24,0.36,0.24,0.54c0.01,2.89,0.02,5.79,0,8.68c0,0.5,0.21,0.81,0.63,1.04
	c2.9,1.55,5.79,3.1,8.68,4.67c1.36,0.73,2.7,1.48,4.05,2.23c0.14,0,0.28,0,0.42,0c0.85-0.48,1.69-0.97,2.55-1.44
	c2.89-1.56,5.79-3.11,8.68-4.67c0.53-0.29,1.04-0.6,1.58-0.87c0.34-0.17,0.46-0.39,0.46-0.78c-0.02-2.93,0-5.86-0.02-8.79
	c0-0.33,0.08-0.51,0.4-0.67c1.32-0.7,2.62-1.44,3.93-2.16c0-0.21,0-0.42,0-0.63c-1.11-1.13-2.23-2.26-3.34-3.39
	c-0.21-0.21-0.43-0.41-0.81-0.77c1.41-1.34,2.78-2.64,4.15-3.95C37.29,9.19,37.29,8.97,37.29,8.76z M3.21,9.29
	c0.65-0.37,1.23-0.71,1.83-1.04c1.43-0.78,2.87-1.56,4.32-2.31c0.05-0.03,0.1-0.06,0.14-0.09l2.95-1.58l0,0
	c0.32-0.17,0.63-0.34,0.95-0.51c0.53-0.29,1.05-0.58,1.53-0.85c1.15,1.15,2.3,2.3,3.45,3.45c-0.73,0.4-1.51,0.84-2.3,1.26
	c-2.04,1.1-4.09,2.19-6.14,3.29c-0.98,0.53-1.95,1.1-2.93,1.62c-0.14,0.08-0.44,0.08-0.54-0.02C5.39,11.47,4.33,10.4,3.21,9.29z
	 M3.25,17.66c0.09-0.12,0.16-0.22,0.24-0.3c0.96-0.97,1.94-1.93,2.89-2.91c0.21-0.22,0.38-0.23,0.63-0.1
	c1.67,0.92,3.35,1.82,5.03,2.73c2.13,1.16,4.25,2.32,6.34,3.46c-1.14,1.14-2.28,2.28-3.45,3.45C11.11,21.91,7.2,19.79,3.25,17.66z
	 M18.84,35.85c-0.79-0.41-1.57-0.8-2.34-1.21c-1.1-0.59-2.2-1.21-3.3-1.81c-1.92-1.04-3.85-2.06-5.76-3.12
	c-0.17-0.09-0.34-0.36-0.35-0.55c-0.02-2.66-0.02-5.33-0.02-8.07c1.46,0.78,2.85,1.53,4.24,2.27c1.19,0.64,2.4,1.28,3.59,1.93
	c0.36,0.2,0.55-0.02,0.76-0.23c0.92-0.91,1.83-1.83,2.75-2.75c0.12-0.12,0.25-0.24,0.42-0.4C18.84,26.58,18.84,31.17,18.84,35.85z
	 M18.73,19.38c-1.09-0.59-2.17-1.19-3.26-1.78c-2.41-1.3-4.81-2.59-7.22-3.89c-0.14-0.07-0.26-0.17-0.41-0.28
	c0.66-0.37,1.29-0.73,1.94-1.08c2.99-1.62,5.99-3.22,8.98-4.86c0.54-0.3,0.95-0.32,1.5,0.04c0.9,0.59,1.9,1.04,2.85,1.55
	c2.68,1.44,5.35,2.89,8.07,4.36c-1.38,0.74-2.73,1.46-4.07,2.19c-2.36,1.28-4.72,2.55-7.05,3.87
	C19.53,19.81,19.15,19.61,18.73,19.38z M31.47,29.74c-1.62,0.84-3.21,1.73-4.81,2.6c-2.04,1.11-4.08,2.22-6.12,3.32
	c-0.15,0.08-0.31,0.14-0.5,0.23c0-4.66,0-9.27,0-14.03c0.62,0.63,1.17,1.18,1.71,1.74c0.47,0.47,0.96,0.93,1.41,1.42
	c0.33,0.35,0.65,0.45,1.09,0.21c0.7-0.38,1.41-0.76,2.11-1.14l0,0l0.07-0.04c0.18-0.1,0.36-0.19,0.53-0.29l4.5-2.44l0,0
	c0.11-0.06,0.22-0.12,0.34-0.18c0,0.62,0,1.16,0,1.69c0,2.09,0,4.17,0,6.26C31.82,29.39,31.78,29.58,31.47,29.74z M35.78,17.62
	c-0.74,0.4-1.42,0.78-2.1,1.16c-1.31,0.71-2.62,1.44-3.95,2.13c-0.07,0.04-0.13,0.08-0.19,0.12l-3.76,2.04
	c-0.61,0.32-1.22,0.64-1.82,0.96c-1.16-1.16-2.3-2.3-3.45-3.45c1.9-1.02,3.82-2.04,5.74-3.07c1.89-1.02,3.78-2.05,5.66-3.09
	c0.33-0.19,0.53-0.16,0.8,0.11C33.69,15.55,34.71,16.55,35.78,17.62z M35.44,9.61c-0.92,0.92-1.84,1.83-2.75,2.76
	c-0.26,0.27-0.46,0.32-0.8,0.13c-1.98-1.1-3.98-2.18-5.98-3.26c-1.81-0.98-3.63-1.96-5.42-2.92c1.14-1.14,2.28-2.28,3.46-3.46
	c3.88,2.1,7.81,4.23,11.79,6.39C35.64,9.39,35.55,9.51,35.44,9.61z"/>
</svg>
