<?xml version="1.0" encoding="utf-8"?>
<!-- Generator: Adobe Illustrator 23.0.3, SVG Export Plug-In . SVG Version: 6.00 Build 0)  -->
<svg version="1.1" id="Capa_1" xmlns="http://www.w3.org/2000/svg" xmlns:xlink="http://www.w3.org/1999/xlink" x="0px" y="0px"
	 viewBox="0 0 145 62" style="enable-background:new 0 0 145 62;" xml:space="preserve">
<style type="text/css">
	.st0{fill:#272425;}
	.st1{fill:#FFFFFF;}
	.st2{fill:none;stroke:#272425;stroke-width:2;stroke-miterlimit:10;}
</style>
<g>
	<polygon class="st0" points="35.03,30.36 28.29,30.36 28.29,23.25 26.4,23.25 26.4,30.36 19.66,30.36 19.66,32.24 26.4,32.24 
		26.4,38.63 28.29,38.63 28.29,32.24 35.03,32.24 	"/>
	<path class="st2" d="M38.97,31.21c0,6.42-5.21,11.63-11.63,11.63c-6.42,0-11.63-5.21-11.63-11.63c0-6.42,5.21-11.62,11.63-11.62
		C33.76,19.59,38.97,24.79,38.97,31.21z"/>
	<g>
		<path class="st0" d="M51.47,19.35c3.07,0,4.38,1.81,4.38,4.77v2.34c0,3.1-1.45,4.71-4.55,4.71h-1.92v7.7H47.2V19.35H51.47z
			 M51.3,29.23c1.62,0,2.4-0.75,2.4-2.62v-2.6c0-1.79-0.64-2.68-2.23-2.68h-2.09v7.89H51.3z"/>
		<path class="st0" d="M59.39,34.95l-0.75,3.93h-2.01l3.74-19.53h3.15l3.74,19.53h-2.18l-0.75-3.93H59.39z M59.67,33.08h4.35
			l-2.2-11.27L59.67,33.08z"/>
		<path class="st0" d="M77.72,24.07v10.1c0,1.2-0.25,2.26-0.75,3.04c0.23,0.47,0.59,0.62,1.2,0.62h0.28v1.92h-0.36
			c-1.23,0-2.04-0.45-2.48-1.26c-0.62,0.36-1.42,0.59-2.37,0.59c-2.98,0-4.46-1.95-4.46-4.91v-10.1c0-2.98,1.48-4.91,4.46-4.91
			C76.24,19.16,77.72,21.09,77.72,24.07z M70.91,23.96v10.32c0,1.79,0.75,2.82,2.32,2.82c1.59,0,2.32-1.03,2.32-2.82V23.96
			c0-1.76-0.73-2.82-2.32-2.82C71.67,21.14,70.91,22.2,70.91,23.96z"/>
		<path class="st0" d="M81.94,34.28c0,1.76,0.69,2.82,2.29,2.82c1.56,0,2.26-1.06,2.26-2.82V19.35h2.04v14.81
			c0,2.96-1.37,4.94-4.38,4.94c-2.98,0-4.35-1.98-4.35-4.94V19.35h2.15V34.28z"/>
		<path class="st0" d="M97.61,28v1.95h-4.77v6.95h5.86v1.98h-8.04V19.35h8.04v1.98h-5.86V28H97.61z"/>
		<path class="st0" d="M103.53,38.88V21.33h-3.6v-1.98h9.34v1.98h-3.6v17.55H103.53z"/>
		<path class="st0" d="M117.7,28v1.95h-4.77v6.95h5.86v1.98h-8.04V19.35h8.04v1.98h-5.86V28H117.7z"/>
		<path class="st0" d="M129.25,24.04v0.53h-2.06v-0.64c0-1.76-0.67-2.79-2.23-2.79c-1.57,0-2.23,1.03-2.23,2.76
			c0,4.38,6.56,4.8,6.56,10.3c0,2.96-1.42,4.88-4.41,4.88c-2.99,0-4.38-1.93-4.38-4.88v-1.12h2.04v1.23c0,1.76,0.73,2.79,2.29,2.79
			c1.56,0,2.29-1.03,2.29-2.79c0-4.35-6.53-4.77-6.53-10.27c0-3.01,1.4-4.88,4.32-4.88C127.86,19.16,129.25,21.09,129.25,24.04z"/>
	</g>
</g>
</svg>
