<?xml version="1.0" encoding="utf-8"?>
<!-- Generator: Adobe Illustrator 23.0.3, SVG Export Plug-In . SVG Version: 6.00 Build 0)  -->
<svg version="1.1" id="Capa_1" xmlns="http://www.w3.org/2000/svg" xmlns:xlink="http://www.w3.org/1999/xlink" x="0px" y="0px"
	 viewBox="0 0 145 62" style="enable-background:new 0 0 145 62;" xml:space="preserve">
<style type="text/css">
	.st0{fill:#272425;}
	.st1{fill:#FFFFFF;}
	.st2{fill:none;stroke:#272425;stroke-width:2;stroke-miterlimit:10;}
</style>
<g>
	<g>
		<path class="st0" d="M34.27,31.09c0,5.89-4.78,10.67-10.67,10.67c-5.89,0-10.67-4.78-10.67-10.67c0-5.89,4.78-10.67,10.67-10.67
			C29.49,20.42,34.27,25.19,34.27,31.09z"/>
		<path class="st1" d="M23.6,42.58c-6.33,0-11.49-5.15-11.49-11.49S17.27,19.6,23.6,19.6c6.34,0,11.49,5.15,11.49,11.49
			S29.94,42.58,23.6,42.58z M23.6,21.24c-5.43,0-9.85,4.42-9.85,9.85c0,5.43,4.42,9.85,9.85,9.85c5.43,0,9.85-4.42,9.85-9.85
			C33.45,25.66,29.03,21.24,23.6,21.24z"/>
	</g>
	<polygon class="st1" points="31.29,30.39 24.55,30.39 24.55,23.28 22.66,23.28 22.66,30.39 15.91,30.39 15.91,32.27 22.66,32.27 
		22.66,38.66 24.55,38.66 24.55,32.27 31.29,32.27 	"/>
	<path class="st0" d="M132.89,53.53L33.9,43.29l4.51-34.82l94.48,3.96V53.53z M35.74,41.83l95.5,9.87V14.01l-91.4-3.83L35.74,41.83z
		"/>
	<g>
		<path class="st0" d="M51.05,24.3v1.76h-2.07v-1.87c0-1.76-0.7-2.82-2.29-2.82c-1.56,0-2.29,1.06-2.29,2.82v10.32
			c0,1.76,0.72,2.82,2.29,2.82c1.59,0,2.29-1.06,2.29-2.82v-2.54h2.07v2.43c0,2.96-1.4,4.91-4.41,4.91c-2.99,0-4.38-1.95-4.38-4.91
			V24.3c0-2.96,1.39-4.91,4.38-4.91C49.66,19.39,51.05,21.35,51.05,24.3z"/>
		<path class="st0" d="M52.87,24.3c0-2.98,1.48-4.91,4.46-4.91c3.01,0,4.49,1.92,4.49,4.91v10.1c0,2.96-1.48,4.91-4.49,4.91
			c-2.99,0-4.46-1.95-4.46-4.91V24.3z M55.02,34.51c0,1.79,0.75,2.82,2.32,2.82c1.59,0,2.31-1.03,2.31-2.82V24.19
			c0-1.76-0.73-2.82-2.31-2.82c-1.56,0-2.32,1.06-2.32,2.82V34.51z"/>
		<path class="st0" d="M65.81,39.12h-1.95V19.59h2.76l4.52,14.12V19.59h1.92v19.53h-2.26l-4.99-15.79V39.12z"/>
		<path class="st0" d="M78.12,39.12V21.57h-3.6v-1.98h9.35v1.98h-3.6v17.55H78.12z"/>
		<path class="st0" d="M86.49,35.18l-0.75,3.93h-2.01l3.74-19.53h3.15l3.74,19.53h-2.18l-0.75-3.93H86.49z M86.77,33.31h4.35
			l-2.2-11.27L86.77,33.31z"/>
		<path class="st0" d="M104.65,24.3v1.76h-2.07v-1.87c0-1.76-0.7-2.82-2.29-2.82c-1.56,0-2.29,1.06-2.29,2.82v10.32
			c0,1.76,0.73,2.82,2.29,2.82c1.59,0,2.29-1.06,2.29-2.82v-2.54h2.07v2.43c0,2.96-1.4,4.91-4.41,4.91c-2.99,0-4.38-1.95-4.38-4.91
			V24.3c0-2.96,1.39-4.91,4.38-4.91C103.26,19.39,104.65,21.35,104.65,24.3z"/>
		<path class="st0" d="M109.45,39.12V21.57h-3.6v-1.98h9.35v1.98h-3.6v17.55H109.45z"/>
		<path class="st0" d="M116.51,24.3c0-2.98,1.48-4.91,4.46-4.91c3.01,0,4.49,1.92,4.49,4.91v10.1c0,2.96-1.48,4.91-4.49,4.91
			c-2.99,0-4.46-1.95-4.46-4.91V24.3z M118.66,34.51c0,1.79,0.75,2.82,2.32,2.82c1.59,0,2.32-1.03,2.32-2.82V24.19
			c0-1.76-0.72-2.82-2.32-2.82c-1.56,0-2.32,1.06-2.32,2.82V34.51z"/>
	</g>
</g>
</svg>
