<?xml version="1.0" encoding="utf-8"?>
<!-- Generator: Adobe Illustrator 23.0.3, SVG Export Plug-In . SVG Version: 6.00 Build 0)  -->
<svg version="1.1" id="Capa_1" xmlns="http://www.w3.org/2000/svg" xmlns:xlink="http://www.w3.org/1999/xlink" x="0px" y="0px"
	 viewBox="0 0 145 62" style="enable-background:new 0 0 145 62;" xml:space="preserve">
<style type="text/css">
	.st0{fill:#272425;}
	.st1{fill:#FFFFFF;}
	.st2{fill:none;stroke:#272425;stroke-width:2;stroke-miterlimit:10;}
</style>
<g>
	<g>
		<path class="st0" d="M133.8,29.41c0,5.89-4.78,10.67-10.67,10.67c-5.89,0-10.67-4.78-10.67-10.67c0-5.89,4.78-10.67,10.67-10.67
			C129.02,18.74,133.8,23.52,133.8,29.41z"/>
		<path class="st1" d="M123.13,40.9c-6.34,0-11.49-5.15-11.49-11.49c0-6.34,5.15-11.49,11.49-11.49c6.33,0,11.49,5.15,11.49,11.49
			C134.62,35.74,129.47,40.9,123.13,40.9z M123.13,19.56c-5.43,0-9.85,4.42-9.85,9.85c0,5.43,4.42,9.85,9.85,9.85
			c5.43,0,9.85-4.42,9.85-9.85C132.98,23.98,128.56,19.56,123.13,19.56z"/>
	</g>
	<polygon class="st1" points="130.82,28.71 124.08,28.71 124.08,21.6 122.19,21.6 122.19,28.71 115.44,28.71 115.44,30.59 
		122.19,30.59 122.19,36.98 124.08,36.98 124.08,30.59 130.82,30.59 	"/>
	<g>
		<path class="st0" d="M36.44,23.34v1.76h-2.07v-1.87c0-1.76-0.7-2.82-2.29-2.82c-1.56,0-2.29,1.06-2.29,2.82v10.32
			c0,1.76,0.72,2.82,2.29,2.82c1.59,0,2.29-1.06,2.29-2.82v-2.54h2.07v2.43c0,2.96-1.4,4.91-4.41,4.91c-2.99,0-4.38-1.95-4.38-4.91
			v-10.1c0-2.96,1.39-4.91,4.38-4.91C35.05,18.43,36.44,20.38,36.44,23.34z"/>
		<path class="st0" d="M38.42,38.16V18.63h2.18v17.55h5.58v1.98H38.42z"/>
		<path class="st0" d="M50,18.63v19.53h-2.18V18.63H50z"/>
		<path class="st0" d="M59.18,27.28v1.95h-4.77v6.95h5.86v1.98h-8.04V18.63h8.04v1.98h-5.86v6.67H59.18z"/>
		<path class="st0" d="M64.2,38.16h-1.95V18.63h2.76l4.52,14.12V18.63h1.93v19.53H69.2L64.2,22.37V38.16z"/>
		<path class="st0" d="M76.51,38.16V20.61h-3.6v-1.98h9.35v1.98h-3.6v17.55H76.51z"/>
		<path class="st0" d="M90.68,27.28v1.95h-4.77v6.95h5.86v1.98h-8.03V18.63h8.03v1.98h-5.86v6.67H90.68z"/>
		<path class="st0" d="M102.23,23.31v0.53h-2.06V23.2c0-1.76-0.67-2.79-2.23-2.79c-1.56,0-2.23,1.03-2.23,2.76
			c0,4.38,6.56,4.8,6.56,10.29c0,2.96-1.42,4.88-4.41,4.88c-2.99,0-4.38-1.93-4.38-4.88v-1.11h2.04v1.23c0,1.76,0.73,2.79,2.29,2.79
			c1.56,0,2.29-1.03,2.29-2.79c0-4.35-6.53-4.77-6.53-10.27c0-3.01,1.39-4.88,4.32-4.88C100.84,18.43,102.23,20.36,102.23,23.31z"/>
	</g>
	<path class="st0" d="M10.38,53.84V13.17l94.24-5.01l4.89,35.65l-0.85,0.09L10.38,53.84z M12.02,14.73v37.3l95.63-9.67L103.2,9.88
		L12.02,14.73z"/>
</g>
</svg>
