<?xml version="1.0" encoding="utf-8"?>
<!-- Generator: Adobe Illustrator 23.0.3, SVG Export Plug-In . SVG Version: 6.00 Build 0)  -->
<svg version="1.1" id="Capa_1" xmlns="http://www.w3.org/2000/svg" xmlns:xlink="http://www.w3.org/1999/xlink" x="0px" y="0px"
	 viewBox="0 0 145 62" style="enable-background:new 0 0 145 62;" xml:space="preserve">
<style type="text/css">
	.st0{fill:#272425;}
	.st1{fill:#FFFFFF;}
	.st2{fill:none;stroke:#272425;stroke-width:2;stroke-miterlimit:10;}
</style>
<g>
	<polygon class="st0" points="121.42,30.15 114.67,30.15 114.67,23.04 112.79,23.04 112.79,30.15 106.04,30.15 106.04,32.03 
		112.79,32.03 112.79,38.42 114.67,38.42 114.67,32.03 121.42,32.03 	"/>
	<path class="st0" d="M113.73,43.45c-6.86,0-12.45-5.58-12.45-12.45c0-6.86,5.58-12.45,12.45-12.45c6.86,0,12.45,5.58,12.45,12.45
		C126.18,37.86,120.59,43.45,113.73,43.45z M113.73,20.19c-5.96,0-10.8,4.85-10.8,10.81s4.85,10.8,10.8,10.8
		c5.96,0,10.8-4.85,10.8-10.8S119.69,20.19,113.73,20.19z"/>
	<g>
		<path class="st0" d="M27.61,25.29v1.76h-2.07v-1.87c0-1.76-0.7-2.82-2.29-2.82c-1.56,0-2.29,1.06-2.29,2.82V35.5
			c0,1.76,0.73,2.82,2.29,2.82c1.59,0,2.29-1.06,2.29-2.82v-2.54h2.07v2.43c0,2.96-1.4,4.91-4.41,4.91c-2.99,0-4.38-1.95-4.38-4.91
			v-10.1c0-2.96,1.39-4.91,4.38-4.91C26.22,20.38,27.61,22.33,27.61,25.29z"/>
		<path class="st0" d="M29.59,40.1V20.57h2.18v17.55h5.58v1.98H29.59z"/>
		<path class="st0" d="M41.17,20.57V40.1h-2.18V20.57H41.17z"/>
		<path class="st0" d="M50.35,29.22v1.95h-4.77v6.95h5.86v1.98h-8.03V20.57h8.03v1.98h-5.86v6.67H50.35z"/>
		<path class="st0" d="M55.37,40.1h-1.95V20.57h2.76l4.52,14.12V20.57h1.93V40.1h-2.26l-4.99-15.79V40.1z"/>
		<path class="st0" d="M67.68,40.1V22.55h-3.6v-1.98h9.35v1.98h-3.6V40.1H67.68z"/>
		<path class="st0" d="M81.85,29.22v1.95h-4.77v6.95h5.86v1.98h-8.03V20.57h8.03v1.98h-5.86v6.67H81.85z"/>
		<path class="st0" d="M93.4,25.26v0.53h-2.06v-0.64c0-1.76-0.67-2.79-2.23-2.79c-1.56,0-2.23,1.03-2.23,2.76
			c0,4.38,6.55,4.8,6.55,10.29c0,2.96-1.42,4.88-4.41,4.88c-2.99,0-4.38-1.93-4.38-4.88V34.3h2.04v1.23c0,1.76,0.72,2.79,2.29,2.79
			c1.56,0,2.29-1.03,2.29-2.79c0-4.35-6.53-4.77-6.53-10.27c0-3.01,1.4-4.88,4.32-4.88C92.01,20.38,93.4,22.3,93.4,25.26z"/>
	</g>
</g>
</svg>
