<?xml version="1.0" encoding="utf-8"?>
<!-- Generator: Adobe Illustrator 23.0.3, SVG Export Plug-In . SVG Version: 6.00 Build 0)  -->
<svg version="1.1" id="Capa_1" xmlns="http://www.w3.org/2000/svg" xmlns:xlink="http://www.w3.org/1999/xlink" x="0px" y="0px"
	 viewBox="0 0 145 62" style="enable-background:new 0 0 145 62;" xml:space="preserve">
<style type="text/css">
	.st0{fill:#272425;}
	.st1{fill:#FFFFFF;}
	.st2{fill:none;stroke:#272425;stroke-width:2;stroke-miterlimit:10;}
</style>
<g>
	<g>
		<path class="st0" d="M47.35,39.28h-1.98V19.43h2.8l4.59,14.35V19.43h1.96v19.85h-2.3l-5.07-16.05V39.28z"/>
		<path class="st0" d="M56.82,24.23c0-3.03,1.5-4.99,4.54-4.99c3.06,0,4.56,1.95,4.56,4.99v10.26c0,3-1.5,4.99-4.56,4.99
			c-3.03,0-4.54-1.99-4.54-4.99V24.23z M59.01,34.6c0,1.81,0.76,2.87,2.35,2.87c1.61,0,2.35-1.05,2.35-2.87V24.11
			c0-1.79-0.74-2.86-2.35-2.86c-1.59,0-2.35,1.08-2.35,2.86V34.6z"/>
		<path class="st0" d="M76.61,24.2v0.54h-2.1v-0.65c0-1.79-0.68-2.84-2.27-2.84s-2.27,1.05-2.27,2.81c0,4.45,6.66,4.88,6.66,10.46
			c0,3-1.45,4.96-4.48,4.96c-3.03,0-4.45-1.96-4.45-4.96v-1.13h2.07v1.25c0,1.79,0.74,2.84,2.33,2.84c1.59,0,2.32-1.05,2.32-2.84
			c0-4.42-6.63-4.85-6.63-10.43c0-3.06,1.42-4.96,4.39-4.96C75.2,19.24,76.61,21.19,76.61,24.2z"/>
		<path class="st0" d="M78.4,24.23c0-3.03,1.5-4.99,4.54-4.99c3.06,0,4.56,1.95,4.56,4.99v10.26c0,3-1.5,4.99-4.56,4.99
			c-3.03,0-4.54-1.99-4.54-4.99V24.23z M80.58,34.6c0,1.81,0.76,2.87,2.35,2.87c1.62,0,2.35-1.05,2.35-2.87V24.11
			c0-1.79-0.74-2.86-2.35-2.86c-1.59,0-2.35,1.08-2.35,2.86V34.6z"/>
		<path class="st0" d="M92.49,39.28V21.45h-3.66v-2.01h9.52v2.01h-3.66v17.83H92.49z"/>
		<path class="st0" d="M104.32,19.43c3.12,0,4.42,1.59,4.42,4.54v1.62c0,2.18-0.76,3.54-2.47,4.08c1.81,0.54,2.49,2.01,2.49,4.14
			v3.09c0,0.88,0.03,1.7,0.4,2.38h-2.24c-0.25-0.57-0.37-1.08-0.37-2.41v-3.12c0-2.24-1.05-2.95-2.89-2.95h-1.56v8.48h-2.21V19.43
			H104.32z M103.75,28.79c1.76,0,2.81-0.57,2.81-2.72v-1.9c0-1.79-0.65-2.72-2.3-2.72h-2.15v7.34H103.75z"/>
		<path class="st0" d="M110.9,24.23c0-3.03,1.5-4.99,4.54-4.99c3.06,0,4.56,1.95,4.56,4.99v10.26c0,3-1.5,4.99-4.56,4.99
			c-3.03,0-4.54-1.99-4.54-4.99V24.23z M113.08,34.6c0,1.81,0.76,2.87,2.35,2.87c1.62,0,2.35-1.05,2.35-2.87V24.11
			c0-1.79-0.74-2.86-2.35-2.86c-1.59,0-2.35,1.08-2.35,2.86V34.6z"/>
		<path class="st0" d="M130.69,24.2v0.54h-2.1v-0.65c0-1.79-0.68-2.84-2.27-2.84c-1.59,0-2.27,1.05-2.27,2.81
			c0,4.45,6.66,4.88,6.66,10.46c0,3-1.45,4.96-4.48,4.96c-3.03,0-4.45-1.96-4.45-4.96v-1.13h2.07v1.25c0,1.79,0.74,2.84,2.32,2.84
			c1.59,0,2.32-1.05,2.32-2.84c0-4.42-6.63-4.85-6.63-10.43c0-3.06,1.42-4.96,4.39-4.96C129.27,19.24,130.69,21.19,130.69,24.2z"/>
	</g>
	<polygon class="st0" points="34.42,30.14 27.67,30.14 27.67,23.04 25.79,23.04 25.79,30.14 19.04,30.14 19.04,32.03 25.79,32.03 
		25.79,38.42 27.67,38.42 27.67,32.03 34.42,32.03 	"/>
	<path class="st0" d="M26.73,43.45c-6.86,0-12.45-5.58-12.45-12.45c0-6.86,5.58-12.45,12.45-12.45c6.86,0,12.45,5.58,12.45,12.45
		C39.18,37.86,33.59,43.45,26.73,43.45z M26.73,20.19c-5.96,0-10.8,4.85-10.8,10.8c0,5.96,4.85,10.81,10.8,10.81
		c5.96,0,10.81-4.85,10.81-10.81C37.54,25.04,32.69,20.19,26.73,20.19z"/>
</g>
</svg>
