<?xml version="1.0" encoding="utf-8"?>
<!-- Generator: Adobe Illustrator 23.0.3, SVG Export Plug-In . SVG Version: 6.00 Build 0)  -->
<svg version="1.1" id="Capa_1" xmlns="http://www.w3.org/2000/svg" xmlns:xlink="http://www.w3.org/1999/xlink" x="0px" y="0px"
	 viewBox="0 0 145 62" style="enable-background:new 0 0 145 62;" xml:space="preserve">
<style type="text/css">
	.st0{fill:#272425;}
	.st1{fill:#FFFFFF;}
	.st2{fill:none;stroke:#272425;stroke-width:2;stroke-miterlimit:10;}
</style>
<g>
	<g>
		<path class="st0" d="M43.48,39.81h-1.98V19.96h2.81l4.59,14.35V19.96h1.96v19.85h-2.3l-5.07-16.05V39.81z"/>
		<path class="st0" d="M52.95,24.75c0-3.03,1.5-4.99,4.54-4.99c3.06,0,4.56,1.96,4.56,4.99v10.26c0,3-1.5,4.99-4.56,4.99
			c-3.03,0-4.54-1.99-4.54-4.99V24.75z M55.13,35.13c0,1.81,0.77,2.87,2.35,2.87c1.62,0,2.35-1.05,2.35-2.87V24.64
			c0-1.79-0.74-2.86-2.35-2.86c-1.59,0-2.35,1.08-2.35,2.86V35.13z"/>
		<path class="st0" d="M72.74,24.72v0.54h-2.1v-0.65c0-1.79-0.68-2.84-2.27-2.84s-2.27,1.05-2.27,2.81c0,4.45,6.66,4.88,6.66,10.46
			c0,3-1.45,4.96-4.48,4.96c-3.03,0-4.45-1.96-4.45-4.96v-1.13h2.07v1.25c0,1.79,0.74,2.84,2.32,2.84c1.59,0,2.32-1.05,2.32-2.84
			c0-4.42-6.63-4.85-6.63-10.43c0-3.06,1.42-4.96,4.39-4.96C71.32,19.76,72.74,21.72,72.74,24.72z"/>
		<path class="st0" d="M74.53,24.75c0-3.03,1.5-4.99,4.54-4.99c3.06,0,4.56,1.96,4.56,4.99v10.26c0,3-1.5,4.99-4.56,4.99
			c-3.03,0-4.54-1.99-4.54-4.99V24.75z M76.71,35.13c0,1.81,0.77,2.87,2.35,2.87c1.62,0,2.35-1.05,2.35-2.87V24.64
			c0-1.79-0.74-2.86-2.35-2.86c-1.59,0-2.35,1.08-2.35,2.86V35.13z"/>
		<path class="st0" d="M88.62,39.81V21.97h-3.66v-2.01h9.53v2.01h-3.66v17.83H88.62z"/>
		<path class="st0" d="M100.44,19.96c3.12,0,4.42,1.59,4.42,4.54v1.62c0,2.18-0.77,3.54-2.47,4.08c1.81,0.54,2.5,2.01,2.5,4.14v3.09
			c0,0.88,0.03,1.7,0.4,2.38h-2.24c-0.25-0.57-0.37-1.08-0.37-2.41v-3.12c0-2.24-1.05-2.95-2.89-2.95h-1.56v8.48h-2.21V19.96H100.44
			z M99.88,29.32c1.76,0,2.81-0.57,2.81-2.72v-1.9c0-1.79-0.65-2.72-2.3-2.72h-2.15v7.34H99.88z"/>
		<path class="st0" d="M107.02,24.75c0-3.03,1.5-4.99,4.54-4.99c3.06,0,4.56,1.96,4.56,4.99v10.26c0,3-1.5,4.99-4.56,4.99
			c-3.03,0-4.54-1.99-4.54-4.99V24.75z M109.21,35.13c0,1.81,0.77,2.87,2.35,2.87c1.62,0,2.35-1.05,2.35-2.87V24.64
			c0-1.79-0.74-2.86-2.35-2.86c-1.59,0-2.35,1.08-2.35,2.86V35.13z"/>
		<path class="st0" d="M126.81,24.72v0.54h-2.1v-0.65c0-1.79-0.68-2.84-2.27-2.84c-1.59,0-2.27,1.05-2.27,2.81
			c0,4.45,6.66,4.88,6.66,10.46c0,3-1.45,4.96-4.48,4.96s-4.45-1.96-4.45-4.96v-1.13h2.07v1.25c0,1.79,0.74,2.84,2.32,2.84
			c1.59,0,2.33-1.05,2.33-2.84c0-4.42-6.63-4.85-6.63-10.43c0-3.06,1.42-4.96,4.39-4.96C125.4,19.76,126.81,21.72,126.81,24.72z"/>
	</g>
	<g>
		<path class="st0" d="M33.59,30.79c0,5.89-4.78,10.67-10.67,10.67c-5.89,0-10.67-4.78-10.67-10.67c0-5.89,4.78-10.67,10.67-10.67
			C28.81,20.13,33.59,24.9,33.59,30.79z"/>
		<path class="st1" d="M22.92,42.28c-6.33,0-11.49-5.15-11.49-11.49c0-6.34,5.15-11.49,11.49-11.49s11.49,5.15,11.49,11.49
			C34.41,37.13,29.26,42.28,22.92,42.28z M22.92,20.95c-5.43,0-9.85,4.42-9.85,9.85c0,5.43,4.42,9.85,9.85,9.85s9.85-4.42,9.85-9.85
			C32.77,25.36,28.35,20.95,22.92,20.95z"/>
	</g>
	<polygon class="st1" points="30.61,30.1 23.87,30.1 23.87,22.99 21.98,22.99 21.98,30.1 15.23,30.1 15.23,31.98 21.98,31.98 
		21.98,38.37 23.87,38.37 23.87,31.98 30.61,31.98 	"/>
	<path class="st0" d="M133.57,53.53L34.58,43.29l4.51-34.82l94.48,3.96V53.53z M36.42,41.83l95.5,9.87V14.01l-91.4-3.83L36.42,41.83
		z"/>
</g>
</svg>
