<?xml version="1.0" encoding="utf-8"?>
<!-- Generator: Adobe Illustrator 23.0.3, SVG Export Plug-In . SVG Version: 6.00 Build 0)  -->
<svg version="1.1" id="Capa_1" xmlns="http://www.w3.org/2000/svg" xmlns:xlink="http://www.w3.org/1999/xlink" x="0px" y="0px"
	 viewBox="0 0 145 62" style="enable-background:new 0 0 145 62;" xml:space="preserve">
<style type="text/css">
	.st0{fill:#272425;}
	.st1{fill:#FFFFFF;}
	.st2{fill:none;stroke:#272425;stroke-width:2;stroke-miterlimit:10;}
</style>
<g>
	<g>
		<path class="st0" d="M33.36,29.48c0,5.89-4.78,10.67-10.67,10.67c-5.89,0-10.67-4.78-10.67-10.67c0-5.89,4.78-10.67,10.67-10.67
			C28.59,18.81,33.36,23.58,33.36,29.48z"/>
		<path class="st1" d="M22.7,40.97c-6.34,0-11.49-5.15-11.49-11.49c0-6.34,5.15-11.49,11.49-11.49c6.33,0,11.49,5.16,11.49,11.49
			C34.19,35.81,29.03,40.97,22.7,40.97z M22.7,19.63c-5.43,0-9.85,4.42-9.85,9.85c0,5.43,4.42,9.85,9.85,9.85
			c5.43,0,9.85-4.42,9.85-9.85C32.54,24.05,28.13,19.63,22.7,19.63z"/>
	</g>
	<polygon class="st1" points="30.39,28.78 23.64,28.78 23.64,21.67 21.76,21.67 21.76,28.78 15.01,28.78 15.01,30.66 21.76,30.66 
		21.76,37.05 23.64,37.05 23.64,30.66 30.39,30.66 	"/>
	<path class="st0" d="M133.79,53.53L34.8,43.29l4.51-34.82l94.48,3.96V53.53z M36.65,41.83l95.5,9.87v-37.7l-91.4-3.83L36.65,41.83z
		"/>
	<g>
		<path class="st0" d="M47.68,18.97c3.07,0,4.38,1.81,4.38,4.77v2.34c0,3.1-1.45,4.72-4.55,4.72h-1.92v7.7h-2.18V18.97H47.68z
			 M47.51,28.85c1.62,0,2.4-0.75,2.4-2.62v-2.6c0-1.79-0.64-2.68-2.23-2.68h-2.09v7.89H47.51z"/>
		<path class="st0" d="M55.61,34.57l-0.75,3.93h-2.01l3.74-19.53h3.15l3.74,19.53H61.3l-0.75-3.93H55.61z M55.88,32.7h4.35
			l-2.2-11.27L55.88,32.7z"/>
		<path class="st0" d="M73.94,23.69v10.1c0,1.2-0.25,2.26-0.75,3.04c0.22,0.47,0.59,0.61,1.2,0.61h0.28v1.93H74.3
			c-1.23,0-2.04-0.45-2.48-1.26c-0.61,0.36-1.42,0.59-2.37,0.59c-2.99,0-4.46-1.95-4.46-4.91v-10.1c0-2.98,1.48-4.91,4.46-4.91
			C72.46,18.78,73.94,20.7,73.94,23.69z M67.13,23.58V33.9c0,1.79,0.75,2.82,2.32,2.82c1.59,0,2.31-1.03,2.31-2.82V23.58
			c0-1.76-0.73-2.82-2.31-2.82C67.88,20.76,67.13,21.82,67.13,23.58z"/>
		<path class="st0" d="M78.15,33.9c0,1.76,0.7,2.82,2.29,2.82c1.56,0,2.26-1.06,2.26-2.82V18.97h2.04v14.81
			c0,2.96-1.37,4.94-4.38,4.94c-2.99,0-4.35-1.98-4.35-4.94V18.97h2.15V33.9z"/>
		<path class="st0" d="M93.83,27.62v1.95h-4.77v6.95h5.86v1.98h-8.03V18.97h8.03v1.98h-5.86v6.67H93.83z"/>
		<path class="st0" d="M99.75,38.5V20.95h-3.6v-1.98h9.35v1.98h-3.6V38.5H99.75z"/>
		<path class="st0" d="M113.92,27.62v1.95h-4.77v6.95h5.86v1.98h-8.04V18.97h8.04v1.98h-5.86v6.67H113.92z"/>
		<path class="st0" d="M125.47,23.66v0.53h-2.06v-0.64c0-1.76-0.67-2.79-2.23-2.79c-1.56,0-2.23,1.03-2.23,2.76
			c0,4.38,6.55,4.8,6.55,10.3c0,2.96-1.42,4.88-4.41,4.88c-2.99,0-4.38-1.93-4.38-4.88V32.7h2.04v1.23c0,1.76,0.73,2.79,2.29,2.79
			c1.56,0,2.29-1.03,2.29-2.79c0-4.35-6.53-4.77-6.53-10.27c0-3.01,1.4-4.88,4.32-4.88C124.07,18.78,125.47,20.7,125.47,23.66z"/>
	</g>
</g>
</svg>
