<?xml version="1.0" encoding="utf-8"?>
<!-- Generator: Adobe Illustrator 23.0.3, SVG Export Plug-In . SVG Version: 6.00 Build 0)  -->
<svg version="1.1" id="Capa_1" xmlns="http://www.w3.org/2000/svg" xmlns:xlink="http://www.w3.org/1999/xlink" x="0px" y="0px"
	 viewBox="0 0 145 62" style="enable-background:new 0 0 145 62;" xml:space="preserve">
<style type="text/css">
	.st0{fill:#272425;}
	.st1{fill:#FFFFFF;}
	.st2{fill:none;stroke:#272425;stroke-width:2;stroke-miterlimit:10;}
</style>
<g>
	<polygon class="st0" points="34.75,30.14 28,30.14 28,23.04 26.12,23.04 26.12,30.14 19.37,30.14 19.37,32.03 26.12,32.03 
		26.12,38.42 28,38.42 28,32.03 34.75,32.03 	"/>
	<path class="st0" d="M27.06,43.45c-6.86,0-12.45-5.58-12.45-12.45c0-6.86,5.58-12.45,12.45-12.45c6.86,0,12.45,5.58,12.45,12.45
		C39.5,37.86,33.92,43.45,27.06,43.45z M27.06,20.19c-5.96,0-10.81,4.85-10.81,10.81c0,5.96,4.85,10.8,10.81,10.8
		c5.96,0,10.81-4.85,10.81-10.8C37.86,25.04,33.01,20.19,27.06,20.19z"/>
	<g>
		<path class="st0" d="M55.98,24.33v1.76h-2.07v-1.87c0-1.76-0.7-2.82-2.29-2.82c-1.56,0-2.29,1.06-2.29,2.82v10.32
			c0,1.76,0.72,2.82,2.29,2.82c1.59,0,2.29-1.06,2.29-2.82v-2.54h2.07v2.43c0,2.96-1.4,4.91-4.41,4.91c-2.99,0-4.38-1.95-4.38-4.91
			v-10.1c0-2.96,1.39-4.91,4.38-4.91C54.58,19.42,55.98,21.38,55.98,24.33z"/>
		<path class="st0" d="M57.79,24.33c0-2.98,1.48-4.91,4.46-4.91c3.01,0,4.49,1.92,4.49,4.91v10.1c0,2.96-1.48,4.91-4.49,4.91
			c-2.98,0-4.46-1.95-4.46-4.91V24.33z M59.94,34.55c0,1.79,0.75,2.82,2.32,2.82c1.59,0,2.31-1.03,2.31-2.82V24.22
			c0-1.76-0.72-2.82-2.31-2.82c-1.56,0-2.32,1.06-2.32,2.82V34.55z"/>
		<path class="st0" d="M70.74,39.15h-1.95V19.62h2.76l4.52,14.12V19.62h1.93v19.53h-2.26l-4.99-15.79V39.15z"/>
		<path class="st0" d="M83.04,39.15V21.6h-3.6v-1.98h9.34v1.98h-3.6v17.55H83.04z"/>
		<path class="st0" d="M91.41,35.21l-0.75,3.94h-2.01l3.74-19.53h3.15l3.74,19.53H97.1l-0.75-3.94H91.41z M91.69,33.34h4.35
			l-2.2-11.27L91.69,33.34z"/>
		<path class="st0" d="M109.58,24.33v1.76h-2.07v-1.87c0-1.76-0.7-2.82-2.29-2.82c-1.56,0-2.29,1.06-2.29,2.82v10.32
			c0,1.76,0.73,2.82,2.29,2.82c1.59,0,2.29-1.06,2.29-2.82v-2.54h2.07v2.43c0,2.96-1.4,4.91-4.41,4.91c-2.99,0-4.38-1.95-4.38-4.91
			v-10.1c0-2.96,1.39-4.91,4.38-4.91C108.18,19.42,109.58,21.38,109.58,24.33z"/>
		<path class="st0" d="M114.38,39.15V21.6h-3.6v-1.98h9.35v1.98h-3.6v17.55H114.38z"/>
		<path class="st0" d="M121.44,24.33c0-2.98,1.48-4.91,4.46-4.91c3.01,0,4.49,1.92,4.49,4.91v10.1c0,2.96-1.48,4.91-4.49,4.91
			c-2.99,0-4.46-1.95-4.46-4.91V24.33z M123.58,34.55c0,1.79,0.75,2.82,2.32,2.82c1.59,0,2.32-1.03,2.32-2.82V24.22
			c0-1.76-0.73-2.82-2.32-2.82c-1.56,0-2.32,1.06-2.32,2.82V34.55z"/>
	</g>
</g>
</svg>
