<?xml version="1.0" encoding="utf-8"?>
<!-- Generator: Adobe Illustrator 19.2.1, SVG Export Plug-In . SVG Version: 6.00 Build 0)  -->
<svg version="1.1" id="Capa_1" xmlns="http://www.w3.org/2000/svg" xmlns:xlink="http://www.w3.org/1999/xlink" x="0px" y="0px"
	 viewBox="0 0 30 30" style="enable-background:new 0 0 30 30;" xml:space="preserve">
<style type="text/css">
	.st0{fill:#5A9F52;}
</style>
<path class="st0" d="M5.9,12.2C7,13.1,9,15.6,9.7,16.7c0.3,0.5,0.8,0.2,1,0c3.4-3.9,9.5-10.2,16.6-11.1c0.9-0.1,1.3,0.5,0.4,0.9
	c-4.5,2-11.6,10-16.1,17c-0.5,0.8-1.8,1.1-2.4,0.1c-1.3-2.1-5.4-7.5-7.1-9.1c-0.5-0.5-0.4-1.1,0.1-1.5c0.2-0.2,1-0.9,1.2-1.1
	C4.2,11.3,5.2,11.7,5.9,12.2z"/>
</svg>
